<svg width="332" height="101" viewBox="0 0 332 101" fill="none" xmlns="http://www.w3.org/2000/svg">
<path d="M38 19L45.1844 41.1115H68.4338L49.6247 54.7771L56.8091 76.8885L38 63.2229L19.1909 76.8885L26.3753 54.7771L7.56619 41.1115H30.8156L38 19Z" fill="#646464"/>
<path d="M294 19L301.184 41.1115H324.434L305.625 54.7771L312.809 76.8885L294 63.2229L275.191 76.8885L282.375 54.7771L263.566 41.1115H286.816L294 19Z" fill="#C4C4C4"/>
<path d="M230 19L237.184 41.1115H260.434L241.625 54.7771L248.809 76.8885L230 63.2229L211.191 76.8885L218.375 54.7771L199.566 41.1115H222.816L230 19Z" fill="#C4C4C4"/>
<path d="M166 19L173.184 41.1115H196.434L177.625 54.7771L184.809 76.8885L166 63.2229L147.191 76.8885L154.375 54.7771L135.566 41.1115H158.816L166 19Z" fill="#C4C4C4"/>
<path d="M102 19L109.184 41.1115H132.434L113.625 54.7771L120.809 76.8885L102 63.2229L83.1909 76.8885L90.3753 54.7771L71.5662 41.1115H94.8156L102 19Z" fill="#646464"/>
</svg>
